<svg width="29" height="29" viewBox="0 0 29 29" xmlns="http://www.w3.org/2000/svg"><title>fb1435b4c0343e90cfd7b9a669f7e48b</title><path d="M12.923.707A14.14 14.14 0 0 0 4.15 4.802C1.99 6.96.63 9.672.15 12.755c-.162 1.028-.162 3.097 0 4.125.63 4.028 2.795 7.45 6.136 9.698 2.047 1.382 4.265 2.143 6.852 2.365 3.984.34 8.13-1.205 11.036-4.117 4.79-4.783 5.521-12.285 1.751-17.888-1.626-2.417-3.82-4.198-6.512-5.27-2.01-.806-4.353-1.153-6.49-.961zM9.14 7.285c.444.2.65.4.857.843.48 1.013-.03 2.195-1.086 2.506a2.777 2.777 0 0 1-.51.118c-.067 0-.296-.051-.51-.118-1.567-.466-1.744-2.64-.266-3.326a1.866 1.866 0 0 1 1.515-.023zm.813 10.083v5.137H6.847V12.23h3.105v5.138zm5.1-4.39v.746l.377-.414c.71-.776 1.79-1.139 3.134-1.057 1.878.118 2.735.872 3.075 2.727.037.214.089 1.996.119 3.955l.044 3.57h-3.2v-3.2c0-3.297-.023-3.586-.31-3.992-.245-.34-.54-.45-1.243-.458-.761 0-1.227.155-1.545.517-.384.444-.399.562-.428 3.97l-.037 3.163h-3.09v-5.086c0-2.801.022-5.115.052-5.137.022-.03.724-.052 1.552-.052h1.5v.747z" fill-rule="nonzero" fill="#0077B5"/></svg>